<svg width="512" height="512" viewBox="0 0 512 512" fill="none" xmlns="http://www.w3.org/2000/svg">
  <rect x="64" y="64" width="384" height="384" rx="24" fill="#FDE68A"/>
  <path d="M64 88C64 74.7452 74.7452 64 88 64H424C437.255 64 448 74.7452 448 88V128H64V88Z" fill="#5D4037"/>
  <circle cx="112" cy="96" r="16" fill="#FEF3C7"/>
  <circle cx="400" cy="96" r="16" fill="#FEF3C7"/>
  <rect x="96" y="160" width="320" height="4" rx="2" fill="#D97706" fill-opacity="0.3"/>
  <rect x="96" y="224" width="320" height="4" rx="2" fill="#D97706" fill-opacity="0.3"/>
  <rect x="96" y="288" width="320" height="4" rx="2" fill="#D97706" fill-opacity="0.3"/>
  <rect x="96" y="352" width="200" height="4" rx="2" fill="#D97706" fill-opacity="0.3"/>
  <circle cx="96" cy="162" r="12" fill="#78350F"/>
  <circle cx="96" cy="226" r="12" fill="#78350F"/>
  <circle cx="96" cy="290" r="12" fill="#78350F"/>
  <circle cx="96" cy="354" r="12" fill="#78350F"/>
  <path d="M320 448H424C437.255 448 448 437.255 448 424V320L320 448Z" fill="#D97706"/>
</svg>
